<svg id="logo" xmlns="http://www.w3.org/2000/svg" width="316.16" height="40.019" viewBox="0 0 316.16 40.019">
  <g id="Warstwa_1" data-name="Warstwa 1">
    <g id="Group_25027" data-name="Group 25027">
      <path id="Path_7" data-name="Path 7" d="M1198.977,81.947a8.693,8.693,0,0,0-4.6-1.594c-.276-.019-.557-.031-.845-.031a8.812,8.812,0,0,0-7.333,3.369,10,10,0,0,0-.891,1.369,7.849,7.849,0,0,0-6.726-4.7c-.276-.022-.557-.039-.845-.039a8.175,8.175,0,0,0-5.926,2.308,9.678,9.678,0,0,0-1.59,2.049l-.164-3.42c0-.654-.327-.872-.816-.872h-5.664a.771.771,0,0,0-.817.816v26.325a.771.771,0,0,0,.817.816h5.882a.772.772,0,0,0,.817-.816V92.846c0-3.649,1.634-5.609,4.466-5.609a5.464,5.464,0,0,1,.848.069c2.3.363,3.4,2.272,3.4,5.542v14.681a.787.787,0,0,0,.872.816h5.827a.771.771,0,0,0,.816-.816V92.848c0-3.649,1.635-5.609,4.466-5.609a5.516,5.516,0,0,1,.854.067c2.315.357,3.372,2.236,3.391,5.451,0,.031,0,.06,0,.091v14.681a.771.771,0,0,0,.817.816h5.879a.772.772,0,0,0,.816-.816V92.848c0-.031,0-.06,0-.091V91.215c0-4.345-1.355-7.5-3.758-9.268Z" transform="translate(-989.205 -68.331)" fill="#0373ff"/>
      <path id="Path_8" data-name="Path 8" d="M253.85,97.925V81.816a.772.772,0,0,1,.816-.816h5.882a.771.771,0,0,1,.816.816v14.42c0,3.758,1.742,5.773,4.955,5.773s5.229-2.015,5.229-5.773V81.816a.772.772,0,0,1,.816-.816h5.827a.817.817,0,0,1,.872.816v26.292a.815.815,0,0,1-.872.816h-5.609c-.491,0-.816-.218-.816-.872l-.218-3.812a8.725,8.725,0,0,1-8.06,4.684c-5.609,0-9.639-4.03-9.639-11Z" transform="translate(-215.96 -68.91)" fill="#16215b"/>
      <path id="Path_9" data-name="Path 9" d="M440.805,104.14a1.321,1.321,0,0,1,.109-1.579l1.906-2.669a.833.833,0,0,1,1.361-.218c2.233,1.688,4.084,2.615,6.154,2.615,1.8,0,3-.709,3-2.233,0-1.308-.816-1.961-2.778-2.778l-3.376-1.361c-3.432-1.361-5.827-3.594-5.827-7.3,0-5.12,4.357-8.06,9.312-8.06a11.461,11.461,0,0,1,8.932,4.085.838.838,0,0,1-.055,1.143l-2.4,2.887c-.381.436-.763.381-1.252,0-1.743-1.47-3.267-2.233-4.848-2.233-1.742,0-2.56.981-2.56,2.124,0,1.308,1.09,2.07,2.56,2.615l3.758,1.47c3.376,1.361,6.045,3.649,5.991,7.733-.055,5.391-4.684,8.169-10.021,8.169a12.761,12.761,0,0,1-9.966-4.412Z" transform="translate(-374.827 -68.535)" fill="#16215b"/>
      <path id="Path_10" data-name="Path 10" d="M589.053,64.131V49.82h-3.376A.771.771,0,0,1,584.86,49V44.809a.772.772,0,0,1,.816-.816h3.376V38.316a.771.771,0,0,1,.816-.816h5.936a.771.771,0,0,1,.816.816v5.676h4.194a.772.772,0,0,1,.816.816V49a.772.772,0,0,1-.816.816h-4.194V63.315a2.123,2.123,0,0,0,2.342,2.342c.491,0,1.034,0,1.688-.055.6-.055.981.218.981.763v3.976c0,1.252-2.723,1.579-4.521,1.579-4.248,0-8.06-1.96-8.06-7.788Z" transform="translate(-497.563 -31.903)" fill="#16215b"/>
      <path id="Path_11" data-name="Path 11" d="M715.04,94.538a13.969,13.969,0,1,1,14,14,13.691,13.691,0,0,1-14-14Zm20.7,0c0-4.357-2.94-7.081-6.7-7.081s-6.753,2.723-6.753,7.081,2.94,7.079,6.753,7.079S735.735,98.895,735.735,94.538Z" transform="translate(-608.312 -68.518)" fill="#16215b"/>
      <path id="Path_12" data-name="Path 12" d="M1448.39,94.437c0-7.842,5.5-13.887,13.725-13.887s12.8,5.991,12.8,12.744c0,2.614-.6,4.084-2.94,4.084h-16.229c.817,3.376,3.594,5.229,7.9,5.229a11.8,11.8,0,0,0,6.209-1.634.61.61,0,0,1,.926.218l2.015,2.778c.272.381.218.763-.273,1.2-2.287,2.287-5.718,3.376-9.477,3.376-8.769,0-14.65-6.045-14.65-14.105Zm19.825-2.342a5.667,5.667,0,0,0-6.045-5.338,6.259,6.259,0,0,0-6.536,5.338Z" transform="translate(-1232.201 -68.527)" fill="#16215b"/>
      <path id="Path_13" data-name="Path 13" d="M1646.69,107.735V81.442a.772.772,0,0,1,.816-.816h5.665c.49,0,.816.218.816.872l.218,4.018c.925-2.833,2.614-4.955,5.773-4.955a4.006,4.006,0,0,1,2.451.654,1.171,1.171,0,0,1,.49,1.09v4.684c0,.654-.381.816-1.09.654a7.126,7.126,0,0,0-1.96-.272c-3.7,0-5.664,2.56-5.664,6.372v14a.771.771,0,0,1-.816.816h-5.882a.772.772,0,0,1-.816-.816Z" transform="translate(-1400.902 -68.535)" fill="#16215b"/>
      <path id="Path_14" data-name="Path 14" d="M1765.73,94.437a13.587,13.587,0,0,1,13.943-13.887,12.82,12.82,0,0,1,10.348,4.793.793.793,0,0,1-.109,1.143l-3.267,3.214a.972.972,0,0,1-1.417,0A6.916,6.916,0,0,0,1780,87.467a6.736,6.736,0,0,0-7.026,6.971,6.951,6.951,0,0,0,7.19,7.188,6.848,6.848,0,0,0,5.12-2.233.972.972,0,0,1,1.417,0l3.267,3.214a.793.793,0,0,1,.109,1.143,12.754,12.754,0,0,1-10.239,4.793,13.773,13.773,0,0,1-14.105-14.105Z" transform="translate(-1502.174 -68.527)" fill="#16215b"/>
      <path id="Path_15" data-name="Path 15" d="M1940.46,94.437c0-7.842,5.5-13.887,13.725-13.887s12.8,5.991,12.8,12.744c0,2.614-.6,4.084-2.94,4.084h-16.229c.817,3.376,3.594,5.229,7.9,5.229a11.8,11.8,0,0,0,6.209-1.634.609.609,0,0,1,.925.218l2.015,2.778c.272.381.218.763-.273,1.2-2.287,2.287-5.718,3.376-9.477,3.376-8.769,0-14.65-6.045-14.65-14.105Zm19.825-2.342a5.666,5.666,0,0,0-6.045-5.338A6.259,6.259,0,0,0,1947.7,92.1Z" transform="translate(-1650.824 -68.527)" fill="#16215b"/>
      <path id="Path_16" data-name="Path 16" d="M956.6,81.947a8.693,8.693,0,0,0-4.6-1.594c-.276-.019-.557-.031-.845-.031a8.813,8.813,0,0,0-7.333,3.369,10.011,10.011,0,0,0-.891,1.369,7.849,7.849,0,0,0-6.726-4.7c-.276-.022-.557-.039-.845-.039a8.175,8.175,0,0,0-5.926,2.308,9.678,9.678,0,0,0-1.59,2.049l-.164-3.42c0-.654-.327-.872-.816-.872H921.2a.771.771,0,0,0-.816.816v26.325a.771.771,0,0,0,.816.816h5.882a.772.772,0,0,0,.816-.816V92.846c0-3.649,1.634-5.609,4.466-5.609a5.463,5.463,0,0,1,.848.069c2.3.363,3.4,2.272,3.4,5.542v14.681a.787.787,0,0,0,.872.816h5.827a.771.771,0,0,0,.817-.816V92.848c0-3.649,1.634-5.609,4.466-5.609a5.515,5.515,0,0,1,.854.067c2.315.357,3.372,2.236,3.391,5.451,0,.031,0,.06,0,.091v14.681a.771.771,0,0,0,.816.816h5.879a.772.772,0,0,0,.817-.816V92.848c0-.031,0-.06,0-.091V91.215c0-4.345-1.355-7.5-3.758-9.268Z" transform="translate(-783.003 -68.331)" fill="#16215b"/>
      <path id="Path_17" data-name="Path 17" d="M0,20.035A19.817,19.817,0,0,1,20.035,0a18.825,18.825,0,0,1,13.6,5.6.763.763,0,0,1,0,1.166l-3.885,4.163a.763.763,0,0,1-1.166.057,12.993,12.993,0,0,0-8.547-3.22c-6.826,0-11.989,5.217-11.989,12.265a11.788,11.788,0,0,0,11.989,12.21,12.985,12.985,0,0,0,8.547-3.22.763.763,0,0,1,1.166.057l3.885,4.163a.7.7,0,0,1,0,1.109,18.646,18.646,0,0,1-13.6,5.661A19.769,19.769,0,0,1,0,20.035Z" fill="#16215b"/>
    </g>
  </g>
</svg>
